<svg id="fire" xmlns="http://www.w3.org/2000/svg" viewBox="0 0 388.88 481.6"><defs><style>.cls-1{fill:#fff;}</style></defs><title>fire</title><path class="cls-1" d="M271,9.2c-0.61,29.67-16.85,59.23-17.47,88.9-0.19,9.38-.28,19.49.4,29.79a93.76,93.76,0,0,0,36.52,68.17c3.35,2.57,6.71,5.14,10,7.77A65.76,65.76,0,0,0,341.4,218h0a1.49,1.49,0,0,0,1.44-1.14h0a160.76,160.76,0,0,0,3.79-53.26h0a94.62,94.62,0,0,0-8.52-31.13l-8.85-18.86L346.41,128a301.17,301.17,0,0,1,55.37,61.23l3.51,5.16a268.16,268.16,0,0,1,33.12,67.26,105.83,105.83,0,0,1,5.24,29.9h0a24.78,24.78,0,0,1,.79,6.2L444,314.42q0,3.37-.28,6.74l-1.12,13.45a184.74,184.74,0,0,1-16.87,63.16h0a76,76,0,0,1-13.05,19.36h0a216.59,216.59,0,0,1-53.92,42.24h0a339,339,0,0,1-49.24,22.34l-6.9,2.49a111.45,111.45,0,0,1-37.81,6.61h-8.4a5.13,5.13,0,0,1-4.69-7.21l21.39-48.29q1.21-2.72,2.25-5.51l11.21-28.25L291.83,386h0c3.91-12.73,4.19-27.32-1.17-44.54l-4.14-11.68a106,106,0,0,0-5.11-12l-0.54-1.08A158.89,158.89,0,0,0,261,286.25l-24.92-30V297a176,176,0,0,1-2.25,28l-0.9,5.59a198.32,198.32,0,0,1-20.29,60.79h0a126.05,126.05,0,0,1-25.21,33.14l-9.55,9A110.5,110.5,0,0,1,139.74,457h0a18.52,18.52,0,0,1-16.07-1.69l-7.49-4.66A107.15,107.15,0,0,1,80.51,414.1l-8.15-13.81A112.62,112.62,0,0,1,60,369.88l-0.33-1.35A141.55,141.55,0,0,1,57,314.79l0.31-2.17a148.44,148.44,0,0,1,13.53-44.09h0a98.44,98.44,0,0,1,16.34-23.83l11.69-12.59-0.33,15.65a121,121,0,0,0,7.8,45.38h0a41.8,41.8,0,0,0,10.17,15.38l4,3.82a33.23,33.23,0,0,0,21.81,9.22h0a25.9,25.9,0,0,0,18.46-6.82l0.87-.8a55.48,55.48,0,0,0,16.18-27l0.72-2.8a66.07,66.07,0,0,0,1.1-27.68l-5.07-29.3-5.73-24.67a138,138,0,0,1-3-44.29h0a95,95,0,0,1,5.62-24.35h0a250.16,250.16,0,0,1,27.45-53h0a149.88,149.88,0,0,1,22.41-26Z" transform="translate(-55.56 -9.2)"/></svg>